<svg width="24" height="24" viewBox="0 0 24 24" fill="none" xmlns="http://www.w3.org/2000/svg">
<circle cx="12" cy="8" r="4" stroke="#42493F" stroke-width="2" stroke-linecap="round"/>
<path fill-rule="evenodd" clip-rule="evenodd" d="M13.3266 15.0759C12.8886 15.0255 12.4452 15 12 15C10.0805 15 8.1938 15.4738 6.6311 16.3732C5.06898 17.2721 3.88121 18.5702 3.33088 20.1106C3.14507 20.6307 3.41605 21.203 3.93614 21.3888C4.45623 21.5746 5.02848 21.3036 5.21429 20.7835C5.57555 19.7723 6.3965 18.8157 7.62869 18.1066C8.64269 17.523 9.86372 17.1503 11.158 17.0368C11.4889 16.0601 12.309 15.3092 13.3266 15.0759Z" fill="#42493F"/>
<path d="M18 14L18 22" stroke="#42493F" stroke-width="2.5" stroke-linecap="round"/>
<path d="M22 18L14 18" stroke="#42493F" stroke-width="2.5" stroke-linecap="round"/>
</svg>
