<svg width="39" height="21" viewBox="0 0 39 21" fill="none" xmlns="http://www.w3.org/2000/svg">
<path d="M10.7101 20.6497C7.84011 20.6497 5.40012 19.6498 3.40012 17.6398C1.39012 15.6298 0.390137 13.1897 0.390137 10.3297C0.390137 7.45974 1.39012 5.01974 3.40012 3.01974C5.41012 1.01974 7.85011 0.00976562 10.7101 0.00976562H27.9201C30.7901 0.00976562 33.2301 1.00974 35.2301 3.01974C37.2301 5.02975 38.2401 7.46974 38.2401 10.3297C38.2401 13.1997 37.2401 15.6398 35.2301 17.6398C33.2201 19.6498 30.7801 20.6497 27.9201 20.6497H10.7101ZM10.7101 18.0698H27.9201C30.0701 18.0698 31.9001 17.3198 33.4101 15.8098C34.9201 14.2998 35.6701 12.4798 35.6701 10.3198C35.6701 8.15976 34.9201 6.33974 33.4101 4.82974C31.9001 3.31974 30.0801 2.56976 27.9201 2.56976H10.7101C8.56011 2.56976 6.73012 3.31974 5.22012 4.82974C3.71012 6.33974 2.96011 8.15976 2.96011 10.3198C2.96011 12.4798 3.71012 14.2998 5.22012 15.8098C6.73012 17.3198 8.56011 18.0698 10.7101 18.0698ZM25.8301 7.13977C25.7401 7.46977 25.6901 7.81977 25.6901 8.16977C25.6901 10.2898 27.4101 12.0098 29.5301 12.0098C29.8801 12.0098 30.2301 11.9598 30.5601 11.8698C30.0201 13.1998 28.7101 14.1398 27.2001 14.1398C25.2001 14.1398 23.5701 12.5098 23.5701 10.5098C23.5601 8.97977 24.5001 7.67977 25.8301 7.13977ZM27.1901 5.83975C24.6101 5.83975 22.5201 7.92977 22.5201 10.5098C22.5201 13.0898 24.6101 15.1797 27.1901 15.1797C29.7701 15.1797 31.8601 13.0898 31.8601 10.5098C31.8601 10.2698 31.8401 10.0297 31.8101 9.79974C31.3001 10.5097 30.4701 10.9698 29.5301 10.9698C27.9901 10.9698 26.7301 9.71977 26.7301 8.16977C26.7301 7.22977 27.1901 6.39977 27.9001 5.88977C27.6701 5.85977 27.4301 5.83975 27.1901 5.83975Z" fill="#C93155"/>
</svg>
