<svg width="38" height="21" viewBox="0 0 38 21" fill="none" xmlns="http://www.w3.org/2000/svg">
<path d="M10.88 20.4499C8.05997 20.4499 5.64996 19.4599 3.67996 17.4799C1.69996 15.4999 0.709961 13.0999 0.709961 10.2799C0.709961 7.45988 1.69996 5.04986 3.67996 3.07986C5.65996 1.09986 8.05997 0.109863 10.88 0.109863H27.83C30.65 0.109863 33.06 1.09986 35.03 3.07986C37.01 5.05986 38 7.45988 38 10.2799C38 13.0999 37.01 15.5099 35.03 17.4799C33.05 19.4599 30.65 20.4499 27.83 20.4499H10.88ZM10.88 17.9099H27.83C29.95 17.9099 31.75 17.1699 33.23 15.6899C34.71 14.2099 35.45 12.4099 35.45 10.2899C35.45 8.16989 34.71 6.36989 33.23 4.88989C31.75 3.40989 29.95 2.66989 27.83 2.66989H10.88C8.75997 2.66989 6.95998 3.40989 5.47998 4.88989C3.99998 6.36989 3.25998 8.16989 3.25998 10.2899C3.25998 12.4099 3.99998 14.2099 5.47998 15.6899C6.96998 17.1699 8.76997 17.9099 10.88 17.9099Z" fill="#C93155"/>
<path d="M11.75 9.13004C12.54 9.13004 13.19 9.78004 13.19 10.57C13.19 11.36 12.54 12.01 11.75 12.01C10.96 12.01 10.31 11.36 10.31 10.57C10.31 9.78004 10.96 9.13004 11.75 9.13004ZM11.75 8.17004C10.43 8.17004 9.34998 9.25004 9.34998 10.57C9.34998 11.89 10.43 12.97 11.75 12.97C13.07 12.97 14.15 11.89 14.15 10.57C14.15 9.25004 13.07 8.17004 11.75 8.17004ZM6.94998 11.05H7.90997C8.16997 11.05 8.38998 10.83 8.38998 10.57C8.38998 10.31 8.16997 10.09 7.90997 10.09H6.94998C6.68998 10.09 6.46997 10.31 6.46997 10.57C6.46997 10.83 6.68998 11.05 6.94998 11.05ZM15.59 11.05H16.55C16.81 11.05 17.03 10.83 17.03 10.57C17.03 10.31 16.81 10.09 16.55 10.09H15.59C15.33 10.09 15.11 10.31 15.11 10.57C15.11 10.83 15.32 11.05 15.59 11.05ZM11.27 5.77002V6.73004C11.27 6.99004 11.49 7.21002 11.75 7.21002C12.01 7.21002 12.23 6.99004 12.23 6.73004V5.77002C12.23 5.51002 12.01 5.29004 11.75 5.29004C11.49 5.29004 11.27 5.51002 11.27 5.77002ZM11.27 14.41V15.37C11.27 15.63 11.49 15.85 11.75 15.85C12.01 15.85 12.23 15.63 12.23 15.37V14.41C12.23 14.15 12.01 13.93 11.75 13.93C11.49 13.93 11.27 14.15 11.27 14.41ZM8.85995 7.01004C8.66995 6.82004 8.36996 6.82004 8.17996 7.01004C7.98996 7.20004 7.98996 7.50003 8.17996 7.69003L8.68997 8.20004C8.87997 8.39004 9.17996 8.39004 9.36996 8.20004C9.54996 8.01004 9.55996 7.71002 9.36996 7.52002L8.85995 7.01004ZM14.8 12.95C14.61 12.76 14.31 12.76 14.12 12.95C13.93 13.14 13.93 13.44 14.12 13.63L14.63 14.14C14.82 14.33 15.12 14.33 15.31 14.14C15.5 13.95 15.5 13.65 15.31 13.46L14.8 12.95ZM15.31 7.69003C15.5 7.50003 15.5 7.20004 15.31 7.01004C15.12 6.82004 14.82 6.82004 14.63 7.01004L14.12 7.52002C13.93 7.71002 13.93 8.01004 14.12 8.20004C14.31 8.38004 14.61 8.39004 14.8 8.20004L15.31 7.69003ZM9.36996 13.62C9.55996 13.43 9.55996 13.13 9.36996 12.94C9.17996 12.75 8.87997 12.75 8.68997 12.94L8.17996 13.45C7.98996 13.64 7.98996 13.94 8.17996 14.13C8.36996 14.32 8.66995 14.32 8.85995 14.13L9.36996 13.62Z" fill="#C93155"/>
</svg>
