<svg width="63" height="63" viewBox="0 0 63 63" fill="none" xmlns="http://www.w3.org/2000/svg">
<path fill-rule="evenodd" clip-rule="evenodd" d="M47.55 0H15.45C6.91724 0 0 6.91699 0 15.4502V47.5498C0 56.083 6.91724 63 15.45 63H47.55C56.0828 63 63 56.083 63 47.5498V15.4502C63 6.91699 56.0828 0 47.55 0ZM24.9199 15H20.0801C18.9312 15 18 15.9312 18 17.0801V45.9199C18 47.0688 18.9312 48 20.0801 48H24.9199C26.0688 48 27 47.0688 27 45.9199V17.0801C27 15.9312 26.0688 15 24.9199 15ZM39.0801 15H43.9199C45.0688 15 46 15.9312 46 17.0801V45.9199C46 47.0688 45.0688 48 43.9199 48H39.0801C37.9312 48 37 47.0688 37 45.9199V17.0801C37 15.9312 37.9312 15 39.0801 15Z" fill="#C93155"/>
</svg>
