<svg width="16" height="14" viewBox="0 0 16 14" fill="none" xmlns="http://www.w3.org/2000/svg">
<path d="M10.04 7.94989L9.29 7.19989C9.59 6.38989 9.43 5.71988 8.83 5.18988C8.23 4.65988 7.57 4.51988 6.87 4.77988L6.12 4.02988C6.31 3.90988 6.53 3.80989 6.77 3.75989C7.01 3.69989 7.25 3.66989 7.5 3.66989C8.31 3.66989 8.99 3.94989 9.55 4.50989C10.11 5.06989 10.39 5.75988 10.39 6.55988C10.39 6.80988 10.36 7.05987 10.3 7.29987C10.24 7.53987 10.15 7.76989 10.04 7.94989ZM12.24 10.1499L11.56 9.46988C12.12 9.05988 12.6 8.59988 13.02 8.09988C13.43 7.58988 13.74 7.08989 13.93 6.56989C13.36 5.30989 12.51 4.30986 11.37 3.57986C10.23 2.84986 9 2.47989 7.67 2.47989C7.19 2.47989 6.7 2.52987 6.2 2.61987C5.7 2.70987 5.31 2.81988 5.02 2.93988L4.24 2.13989C4.64 1.95989 5.15 1.79988 5.77 1.65988C6.39 1.51988 6.99 1.45987 7.59 1.45987C9.21 1.45987 10.7 1.91988 12.05 2.84988C13.4 3.77988 14.38 5.01989 15.01 6.56989C14.71 7.29989 14.33 7.95988 13.87 8.55988C13.39 9.16988 12.85 9.68987 12.24 10.1499ZM13.23 13.9999L10.37 11.1899C9.97 11.3499 9.52 11.4699 9.02 11.5599C8.52 11.6499 8.01 11.6899 7.5 11.6899C5.84 11.6899 4.34 11.2299 2.98 10.2999C1.62 9.36987 0.63 8.12986 0 6.57986C0.23 5.98986 0.539997 5.40988 0.949997 4.84988C1.35 4.28988 1.84 3.74987 2.42 3.23987L0.269997 1.08987L0.989998 0.359863L13.89 13.2599L13.23 13.9999ZM3.12 3.94989C2.7 4.25989 2.29 4.65988 1.9 5.15988C1.51 5.65988 1.23 6.12989 1.06 6.56989C1.64 7.82989 2.51 8.82988 3.68 9.55988C4.85 10.2899 6.17 10.6599 7.64 10.6599C8.02 10.6599 8.38 10.6399 8.75 10.5899C9.11 10.5399 9.39 10.4799 9.57 10.3899L8.48 9.29987C8.36 9.35987 8.2 9.39987 8.02 9.42987C7.84 9.45987 7.67 9.46988 7.51 9.46988C6.71 9.46988 6.03 9.18988 5.46 8.62988C4.89 8.06988 4.61 7.38989 4.61 6.56989C4.61 6.39989 4.62 6.22988 4.65 6.05988C4.68 5.88988 4.72 5.73988 4.78 5.59988L3.12 3.94989Z" fill="#AD196F"/>
</svg>
