<svg width="16" height="13" viewBox="0 0 16 13" fill="none" xmlns="http://www.w3.org/2000/svg">
<path d="M7.48001 9.42999L9.91 7L12.34 9.42999L13.27 8.5L10.81 6.09003L13.22 3.67999L12.29 2.75L9.89999 5.17999L7.47 2.75L6.54001 3.67999L9 6.09003L6.54001 8.5L7.48001 9.42999ZM0.359985 6.08002L4.03 0.890015C4.22 0.630015 4.44001 0.42 4.70001 0.25C4.96001 0.08 5.25001 0 5.57001 0H14.7C15.06 0 15.37 0.130005 15.62 0.380005C15.87 0.630005 16 0.939988 16 1.29999V10.86C16 11.22 15.87 11.53 15.62 11.78C15.37 12.03 15.06 12.16 14.7 12.16H5.57001C5.25001 12.16 4.96001 12.08 4.70001 11.91C4.44001 11.74 4.21 11.53 4.03 11.27L0.359985 6.08002ZM1.98999 6.08002L5.34 10.86H14.7V1.29999H5.34L1.98999 6.08002ZM14.7 6.08002V1.29999V10.86V6.08002Z" fill="#AD196F"/>
</svg>
