<svg width="16" height="12" viewBox="0 0 16 12" fill="none" xmlns="http://www.w3.org/2000/svg">
<path d="M7.85995 8.32999C9.20753 8.32999 10.3 7.23759 10.3 5.89001C10.3 4.54244 9.20753 3.45001 7.85995 3.45001C6.51238 3.45001 5.41998 4.54244 5.41998 5.89001C5.41998 7.23759 6.51238 8.32999 7.85995 8.32999Z" stroke="#AD196F"/>
<path d="M14.53 5.01999C14.85 5.39999 15 5.60001 15 5.89001C15 6.18001 14.84 6.37001 14.53 6.76001C13.37 8.16001 10.82 10.78 7.85995 10.78C4.89995 10.78 2.34997 8.17001 1.18997 6.76001C0.869972 6.38001 0.719971 6.18001 0.719971 5.89001C0.719971 5.60001 0.879972 5.40999 1.18997 5.01999C2.34997 3.61999 4.89995 1 7.85995 1C10.82 1 13.37 3.60999 14.53 5.01999Z" stroke="#AD196F"/>
</svg>
