<svg width="15" height="15" viewBox="0 0 15 15" fill="none" xmlns="http://www.w3.org/2000/svg">
<path d="M9.57001 10.34L6.65002 7.42004V3.78003H7.73004V6.98999L10.33 9.58997L9.57001 10.34ZM0.650024 10.3201C0.470024 9.91007 0.330032 9.49006 0.220032 9.06006C0.110032 8.63006 0.04 8.18999 0 7.73999H1.08002C1.10002 8.08999 1.16001 8.43003 1.26001 8.78003C1.36001 9.12003 1.47004 9.46003 1.60004 9.78003L0.650024 10.3201ZM0 6.66003C0.04 6.20003 0.110032 5.76008 0.220032 5.33008C0.330032 4.90008 0.480044 4.48007 0.670044 4.07007L1.60999 4.60999C1.46999 4.92999 1.35001 5.27 1.26001 5.62C1.17001 5.97 1.11003 6.32004 1.09003 6.67004H0V6.66003ZM3.12 13.2001C2.74 12.9401 2.37999 12.6401 2.04999 12.3201C1.71999 12.0001 1.42999 11.64 1.17999 11.26L2.14001 10.72C2.34001 11.02 2.58002 11.3001 2.83002 11.5601C3.09002 11.8201 3.37004 12.05 3.67004 12.25L3.12 13.2001ZM2.12 3.66003L1.17999 3.12C1.42999 2.74 1.71999 2.38006 2.04999 2.06006C2.36999 1.74006 2.72999 1.45006 3.10999 1.19006L3.65002 2.15002C3.35002 2.35002 3.07 2.57997 2.81 2.83997C2.56 3.08997 2.33 3.36003 2.12 3.66003ZM6.65002 14.4C6.19002 14.36 5.75001 14.2901 5.32001 14.1801C4.89001 14.0701 4.47 13.92 4.06 13.73L4.60004 12.79C4.92004 12.93 5.25999 13.05 5.60999 13.14C5.95999 13.23 6.31003 13.2901 6.66003 13.3101V14.4H6.65002ZM4.60004 1.60999L4.06 0.670044C4.47 0.480044 4.89001 0.329971 5.32001 0.219971C5.75001 0.109971 6.20002 0.04 6.65002 0V1.08008C6.30002 1.10008 5.95004 1.16 5.60004 1.25C5.26004 1.35 4.92004 1.45999 4.60004 1.60999ZM7.73004 14.4V13.3201C8.08004 13.3001 8.43003 13.24 8.78003 13.15C9.13003 13.06 9.47004 12.94 9.79004 12.8L10.33 13.74C9.92002 13.93 9.50001 14.0801 9.07001 14.1901C8.64001 14.2901 8.19004 14.36 7.73004 14.4ZM9.79004 1.60999C9.47004 1.46999 9.13003 1.35001 8.78003 1.26001C8.43003 1.17001 8.08004 1.10997 7.73004 1.08997V0.0100098C8.19004 0.0500098 8.63 0.119971 9.06 0.219971C9.49 0.319971 9.91001 0.480054 10.32 0.680054L9.79004 1.60999ZM11.27 13.2001L10.73 12.24C11.03 12.04 11.31 11.81 11.56 11.55C11.81 11.3 12.04 11.02 12.25 10.72L13.21 11.26C12.96 11.64 12.67 12.0001 12.34 12.3201C12.01 12.6401 11.65 12.9501 11.27 13.2001ZM12.24 3.66003C12.04 3.36003 11.81 3.08008 11.55 2.83008C11.3 2.58008 11.02 2.35001 10.72 2.14001L11.26 1.18005C11.64 1.43005 12 1.72005 12.32 2.05005C12.64 2.37005 12.92 2.72999 13.18 3.10999L12.24 3.66003ZM13.31 6.66003C13.29 6.30003 13.23 5.94998 13.13 5.59998C13.03 5.25998 12.91 4.91998 12.77 4.59998L13.73 4.06006C13.93 4.47006 14.09 4.89007 14.19 5.32007C14.29 5.75007 14.36 6.20002 14.4 6.65002H13.31V6.66003ZM13.72 10.34L12.78 9.80005C12.92 9.48005 13.04 9.14004 13.13 8.79004C13.22 8.44004 13.28 8.08999 13.3 7.73999H14.38C14.34 8.19999 14.27 8.64007 14.16 9.07007C14.07 9.51007 13.92 9.92997 13.72 10.34Z" fill="#C93155"/>
</svg>
