<svg width="175" height="57" viewBox="0 0 175 57" fill="none" xmlns="http://www.w3.org/2000/svg">
<path d="M5.02908 42.9878C4.34302 42.9878 3.78046 42.8094 3.34138 42.4526C2.9023 42.0684 2.6416 41.6019 2.55928 41.0531C2.50439 40.4768 2.69649 39.9005 3.13556 39.3242L12.562 26.7694V29.0334L3.58836 17.0137C3.14928 16.41 2.95719 15.8337 3.01207 15.2849C3.06696 14.7086 3.31394 14.242 3.75301 13.8853C4.19209 13.5011 4.74093 13.309 5.39955 13.309C5.94839 13.309 6.42863 13.4462 6.84026 13.7206C7.27934 13.9676 7.71841 14.393 8.15749 14.9967L15.5669 25.2052H13.8792L21.2474 14.9967C21.6865 14.393 22.1118 13.9676 22.5235 13.7206C22.9626 13.4462 23.4702 13.309 24.0465 13.309C24.7326 13.309 25.2951 13.4874 25.7342 13.8441C26.1733 14.2009 26.4203 14.6674 26.4752 15.2437C26.53 15.7925 26.3242 16.3825 25.8577 17.0137L16.8841 29.0334V26.7694L26.2693 39.3242C26.7084 39.9005 26.9005 40.4768 26.8456 41.0531C26.7907 41.6019 26.5438 42.0684 26.1047 42.4526C25.6656 42.8094 25.0893 42.9878 24.3758 42.9878C23.8544 42.9878 23.3742 42.8505 22.9351 42.5761C22.5235 42.3017 22.0844 41.8626 21.6179 41.2589L13.7969 30.5564H15.608L7.82818 41.2589C7.3891 41.8626 6.95003 42.3017 6.51095 42.5761C6.07188 42.8505 5.57792 42.9878 5.02908 42.9878ZM34.5599 42.9466C33.7366 42.9466 33.1054 42.6996 32.6664 42.2057C32.2273 41.7117 32.0078 41.0256 32.0078 40.1475V25.0406C32.0078 24.135 32.2273 23.4489 32.6664 22.9824C33.1054 22.4884 33.7366 22.2414 34.5599 22.2414C35.3831 22.2414 36.0143 22.4884 36.4534 22.9824C36.9199 23.4489 37.1532 24.135 37.1532 25.0406V40.1475C37.1532 41.0256 36.9336 41.7117 36.4946 42.2057C36.0555 42.6996 35.4106 42.9466 34.5599 42.9466ZM34.5599 18.4133C33.5994 18.4133 32.8447 18.18 32.2959 17.7135C31.7745 17.2195 31.5138 16.5472 31.5138 15.6965C31.5138 14.8183 31.7745 14.146 32.2959 13.6795C32.8447 13.213 33.5994 12.9797 34.5599 12.9797C35.5478 12.9797 36.3025 13.213 36.8239 13.6795C37.3453 14.146 37.606 14.8183 37.606 15.6965C37.606 16.5472 37.3453 17.2195 36.8239 17.7135C36.3025 18.18 35.5478 18.4133 34.5599 18.4133ZM45.0517 42.9878C44.2284 42.9878 43.5973 42.7682 43.1582 42.3291C42.7191 41.8626 42.4996 41.204 42.4996 40.3533V24.7936C42.4996 23.9429 42.7191 23.298 43.1582 22.8589C43.5973 22.4198 44.2147 22.2003 45.0105 22.2003C45.8064 22.2003 46.4238 22.4198 46.8629 22.8589C47.302 23.298 47.5215 23.9429 47.5215 24.7936V27.5927L47.0687 26.5636C47.6724 25.1092 48.6055 24.0115 49.8678 23.2705C51.1576 22.5022 52.612 22.118 54.2311 22.118C55.8502 22.118 57.1812 22.4198 58.224 23.0236C59.2668 23.6273 60.0489 24.5466 60.5703 25.7815C61.0917 26.989 61.3524 28.5257 61.3524 30.3918V40.3533C61.3524 41.204 61.1328 41.8626 60.6938 42.3291C60.2547 42.7682 59.6235 42.9878 58.8002 42.9878C57.977 42.9878 57.3321 42.7682 56.8656 42.3291C56.4265 41.8626 56.207 41.204 56.207 40.3533V30.6388C56.207 29.0746 55.9051 27.9357 55.3014 27.2222C54.7251 26.5087 53.8195 26.152 52.5846 26.152C51.0753 26.152 49.8678 26.6322 48.9622 27.5927C48.0841 28.5257 47.645 29.7743 47.645 31.3385V40.3533C47.645 42.1096 46.7806 42.9878 45.0517 42.9878ZM87.0566 43.0701C84.9436 43.0701 83.1049 42.6447 81.5407 41.794C79.9765 40.9159 78.7691 39.681 77.9183 38.0893C77.0676 36.4977 76.6423 34.6316 76.6423 32.4911C76.6423 30.872 76.8755 29.4313 77.3421 28.169C77.836 26.8792 78.5358 25.7952 79.4414 24.9171C80.347 24.0115 81.4447 23.3254 82.7345 22.8589C84.0242 22.3649 85.465 22.118 87.0566 22.118C87.9622 22.118 88.9364 22.2415 89.9792 22.4884C91.0494 22.7354 92.0511 23.147 92.9841 23.7233C93.4232 23.9978 93.7113 24.3271 93.8485 24.7112C93.9858 25.0954 94.0132 25.4934 93.9309 25.905C93.8485 26.2892 93.6702 26.6322 93.3957 26.9341C93.1488 27.2085 92.8332 27.3869 92.449 27.4692C92.0648 27.5241 91.6394 27.428 91.1729 27.181C90.5692 26.8243 89.9518 26.5636 89.3206 26.3989C88.6894 26.2068 88.0857 26.1108 87.5094 26.1108C86.6038 26.1108 85.808 26.2617 85.1219 26.5636C84.4359 26.838 83.8459 27.2497 83.3519 27.7985C82.8854 28.3199 82.5286 28.9785 82.2817 29.7743C82.0347 30.5702 81.9112 31.4895 81.9112 32.5323C81.9112 34.563 82.3914 36.1684 83.3519 37.3484C84.3398 38.501 85.7257 39.0772 87.5094 39.0772C88.0857 39.0772 88.6757 38.9949 89.2794 38.8303C89.9106 38.6656 90.5418 38.4049 91.1729 38.0482C91.6394 37.8012 92.0511 37.7189 92.4078 37.8012C92.792 37.8835 93.1076 38.0756 93.3546 38.3775C93.6016 38.6519 93.7525 38.9949 93.8074 39.4065C93.8623 39.7907 93.8074 40.1749 93.6427 40.5591C93.5055 40.9433 93.2311 41.2589 92.8195 41.5059C91.9139 42.0547 90.9534 42.4526 89.938 42.6996C88.9227 42.9466 87.9622 43.0701 87.0566 43.0701ZM99.7217 42.9878C98.8984 42.9878 98.2673 42.7682 97.8282 42.3291C97.3891 41.8626 97.1696 41.204 97.1696 40.3533V15.9023C97.1696 15.0516 97.3891 14.4067 97.8282 13.9676C98.2673 13.5286 98.8984 13.309 99.7217 13.309C100.545 13.309 101.176 13.5286 101.615 13.9676C102.082 14.4067 102.315 15.0516 102.315 15.9023V26.5636H101.739C102.342 25.1092 103.275 24.0115 104.538 23.2705C105.828 22.5022 107.282 22.118 108.901 22.118C110.52 22.118 111.851 22.4198 112.894 23.0236C113.937 23.6273 114.719 24.5466 115.24 25.7815C115.762 26.989 116.022 28.5257 116.022 30.3918V40.3533C116.022 41.204 115.803 41.8626 115.364 42.3291C114.925 42.7682 114.294 42.9878 113.47 42.9878C112.647 42.9878 112.002 42.7682 111.536 42.3291C111.096 41.8626 110.877 41.204 110.877 40.3533V30.6388C110.877 29.0746 110.575 27.9357 109.971 27.2222C109.395 26.5087 108.489 26.152 107.255 26.152C105.745 26.152 104.538 26.6322 103.632 27.5927C102.754 28.5257 102.315 29.7743 102.315 31.3385V40.3533C102.315 42.1096 101.451 42.9878 99.7217 42.9878ZM127.876 43.0701C126.421 43.0701 125.118 42.7957 123.965 42.2468C122.84 41.6705 121.948 40.9021 121.29 39.9417C120.658 38.9812 120.343 37.8972 120.343 36.6898C120.343 35.2079 120.727 34.0416 121.495 33.1909C122.264 32.3127 123.512 31.6816 125.241 31.2974C126.97 30.9132 129.289 30.7211 132.198 30.7211H134.256V33.6848H132.239C130.538 33.6848 129.179 33.7672 128.164 33.9318C127.149 34.0965 126.421 34.3846 125.982 34.7963C125.571 35.1804 125.365 35.7293 125.365 36.4428C125.365 37.3484 125.68 38.0893 126.312 38.6656C126.943 39.2419 127.821 39.53 128.946 39.53C129.852 39.53 130.647 39.3242 131.334 38.9126C132.047 38.4735 132.61 37.8835 133.021 37.1426C133.433 36.4016 133.639 35.5509 133.639 34.5904V29.8567C133.639 28.4845 133.337 27.4966 132.733 26.8929C132.129 26.2892 131.114 25.9873 129.687 25.9873C128.891 25.9873 128.027 26.0834 127.094 26.2755C126.188 26.4675 125.228 26.7969 124.212 27.2634C123.691 27.5104 123.224 27.579 122.813 27.4692C122.429 27.3594 122.127 27.1399 121.907 26.8106C121.688 26.4538 121.578 26.0696 121.578 25.658C121.578 25.2464 121.688 24.8485 121.907 24.4643C122.127 24.0526 122.497 23.7508 123.019 23.5587C124.281 23.0373 125.488 22.6668 126.641 22.4473C127.821 22.2277 128.891 22.118 129.852 22.118C131.827 22.118 133.447 22.4198 134.709 23.0236C135.999 23.6273 136.959 24.5466 137.59 25.7815C138.222 26.989 138.537 28.5532 138.537 30.4741V40.3533C138.537 41.204 138.331 41.8626 137.92 42.3291C137.508 42.7682 136.918 42.9878 136.15 42.9878C135.381 42.9878 134.778 42.7682 134.338 42.3291C133.927 41.8626 133.721 41.204 133.721 40.3533V38.3775H134.05C133.858 39.3379 133.474 40.1749 132.898 40.8884C132.349 41.5745 131.649 42.1096 130.798 42.4938C129.948 42.878 128.973 43.0701 127.876 43.0701ZM128.164 19.607L124.171 13.8441C123.869 13.3776 123.746 12.9385 123.801 12.5269C123.883 12.1153 124.075 11.7585 124.377 11.4567C124.706 11.1548 125.077 10.949 125.488 10.8392C125.927 10.7294 126.353 10.7569 126.764 10.9215C127.203 11.0588 127.546 11.3881 127.793 11.9095L130.881 18.0428C131.1 18.4819 131.141 18.8798 131.004 19.2365C130.867 19.5933 130.62 19.8677 130.263 20.0598C129.907 20.2519 129.536 20.3205 129.152 20.2656C128.768 20.2107 128.438 19.9912 128.164 19.607ZM152.939 43.0701C150.853 43.0701 149.042 42.6447 147.506 41.794C145.969 40.9433 144.775 39.7359 143.924 38.1716C143.074 36.58 142.648 34.7139 142.648 32.5734C142.648 30.9543 142.882 29.5136 143.348 28.2513C143.842 26.9615 144.542 25.8638 145.447 24.9582C146.353 24.0252 147.437 23.3254 148.699 22.8589C149.962 22.3649 151.375 22.118 152.939 22.118C155.025 22.118 156.836 22.5433 158.373 23.394C159.909 24.2447 161.103 25.4522 161.954 27.0164C162.805 28.5806 163.23 30.4329 163.23 32.5734C163.23 34.1925 162.983 35.647 162.489 36.9367C162.022 38.2265 161.336 39.3379 160.431 40.271C159.525 41.1766 158.441 41.8763 157.179 42.3703C155.917 42.8368 154.503 43.0701 152.939 43.0701ZM152.939 39.1596C153.954 39.1596 154.846 38.9126 155.615 38.4186C156.383 37.9247 156.973 37.1974 157.385 36.237C157.824 35.2491 158.043 34.0279 158.043 32.5734C158.043 30.3781 157.577 28.7453 156.644 27.675C155.711 26.5773 154.476 26.0285 152.939 26.0285C151.924 26.0285 151.032 26.2755 150.263 26.7694C149.495 27.2359 148.891 27.9631 148.452 28.9511C148.041 29.9115 147.835 31.119 147.835 32.5734C147.835 34.7414 148.301 36.3879 149.234 37.513C150.167 38.6107 151.402 39.1596 152.939 39.1596ZM169.841 47.0629C169.485 47.502 169.101 47.749 168.689 47.8039C168.305 47.8862 167.962 47.8176 167.66 47.598C167.358 47.3785 167.193 47.0629 167.166 46.6513C167.138 46.2671 167.317 45.8417 167.701 45.3752C168.25 44.6892 168.62 44.0031 168.812 43.3171C169.004 42.631 169.101 42.0136 169.101 41.4647L169.306 42.8643C168.346 42.8643 167.564 42.5898 166.96 42.041C166.384 41.4647 166.096 40.7101 166.096 39.777C166.096 38.8989 166.37 38.1854 166.919 37.6365C167.468 37.0602 168.209 36.7721 169.142 36.7721C170.102 36.7721 170.857 37.1014 171.406 37.76C171.955 38.3912 172.229 39.3105 172.229 40.518C172.229 41.1766 172.16 41.8626 172.023 42.5761C171.913 43.2622 171.68 43.9757 171.323 44.7166C170.994 45.485 170.5 46.2671 169.841 47.0629Z" fill="#C93155"/>
<path d="M144.34 26V34.11C142.1 34.11 140.28 32.29 140.28 30.05C140.28 27.82 142.1 26 144.34 26Z" fill="#C93155"/>
<path d="M165 30.06C165 32.3 163.19 34.12 160.94 34.12V26C163.19 26 165 27.82 165 30.06Z" fill="#C93155"/>
</svg>
