<svg width="108" height="56" viewBox="0 0 108 56" fill="none" xmlns="http://www.w3.org/2000/svg">
<path d="M25.8094 12.7741C26.6052 12.7741 27.2364 13.021 27.7029 13.515C28.1694 13.9815 28.4027 14.6127 28.4027 15.4085V39.5714C28.4027 40.3672 28.1557 41.0121 27.6617 41.506C27.1952 42 26.5778 42.247 25.8094 42.247C25.0136 42.247 24.3824 42 23.9159 41.506C23.4494 41.0121 23.2161 40.3672 23.2161 39.5714V29.404H8.35615V39.5714C8.35615 40.3672 8.10917 41.0121 7.61521 41.506C7.14869 42 6.51752 42.247 5.7217 42.247C4.95332 42.247 4.32215 42 3.82819 41.506C3.36167 41.0121 3.12841 40.3672 3.12841 39.5714V15.4085C3.12841 14.6127 3.36167 13.9815 3.82819 13.515C4.2947 13.021 4.92588 12.7741 5.7217 12.7741C6.51752 12.7741 7.14869 13.021 7.61521 13.515C8.10917 13.9815 8.35615 14.6127 8.35615 15.4085V25.123H23.2161V15.4085C23.2161 14.6127 23.4494 13.9815 23.9159 13.515C24.3824 13.021 25.0136 12.7741 25.8094 12.7741ZM50.1215 36.4841C50.588 36.4841 50.9585 36.6625 51.2329 37.0192C51.5347 37.376 51.6857 37.8562 51.6857 38.46C51.6857 39.3107 51.178 40.0242 50.1626 40.6004C49.2296 41.1218 48.1731 41.5472 46.9931 41.8765C45.813 42.1784 44.6879 42.3293 43.6177 42.3293C40.3795 42.3293 37.8136 41.3963 35.9201 39.5302C34.0266 37.6641 33.0799 35.112 33.0799 31.8738C33.0799 29.8157 33.4915 27.9908 34.3148 26.3991C35.138 24.8075 36.2906 23.5726 37.7725 22.6944C39.2818 21.8163 40.9832 21.3772 42.8767 21.3772C44.6879 21.3772 46.2658 21.7751 47.6105 22.5709C48.9552 23.3667 49.998 24.4919 50.7389 25.9463C51.4799 27.4007 51.8503 29.1159 51.8503 31.0917C51.8503 32.2717 51.3289 32.8617 50.2861 32.8617H38.1429C38.3076 34.7553 38.8427 36.1548 39.7483 37.0604C40.6539 37.9386 41.9711 38.3776 43.7 38.3776C44.5781 38.3776 45.3465 38.2679 46.0051 38.0483C46.6912 37.8288 47.4596 37.5269 48.3103 37.1427C49.1335 36.7037 49.7373 36.4841 50.1215 36.4841ZM43.0002 24.9996C41.6007 24.9996 40.4755 25.4386 39.6248 26.3168C38.8016 27.1949 38.3076 28.4573 38.1429 30.1038H47.4458C47.391 28.4298 46.9793 27.1675 46.211 26.3168C45.4426 25.4386 44.3723 24.9996 43.0002 24.9996ZM58.6114 42.247C57.8705 42.247 57.253 42.0412 56.759 41.6295C56.2925 41.1905 56.0593 40.573 56.0593 39.7772V15.2027C56.0593 14.4069 56.2925 13.8031 56.759 13.3915C57.253 12.9799 57.8705 12.7741 58.6114 12.7741C59.3523 12.7741 59.9698 12.9799 60.4637 13.3915C60.9577 13.8031 61.2047 14.4069 61.2047 15.2027V39.7772C61.2047 40.573 60.9577 41.1905 60.4637 41.6295C59.9698 42.0412 59.3523 42.247 58.6114 42.247ZM69.063 42.247C68.3221 42.247 67.7046 42.0412 67.2107 41.6295C66.7441 41.1905 66.5109 40.573 66.5109 39.7772V15.2027C66.5109 14.4069 66.7441 13.8031 67.2107 13.3915C67.7046 12.9799 68.3221 12.7741 69.063 12.7741C69.804 12.7741 70.4214 12.9799 70.9154 13.3915C71.4093 13.8031 71.6563 14.4069 71.6563 15.2027V39.7772C71.6563 40.573 71.4093 41.1905 70.9154 41.6295C70.4214 42.0412 69.804 42.247 69.063 42.247ZM86.1419 42.3293C84.0838 42.3293 82.2726 41.904 80.7084 41.0532C79.1716 40.2025 77.9779 38.9814 77.1272 37.3897C76.2765 35.7981 75.8511 33.9457 75.8511 31.8327C75.8511 29.7196 76.2765 27.881 77.1272 26.3168C77.9779 24.7251 79.1716 23.504 80.7084 22.6532C82.2726 21.8025 84.0838 21.3772 86.1419 21.3772C88.2001 21.3772 89.9976 21.8025 91.5343 22.6532C93.0985 23.504 94.2923 24.7251 95.1155 26.3168C95.9662 27.881 96.3916 29.7196 96.3916 31.8327C96.3916 33.9457 95.9662 35.7981 95.1155 37.3897C94.2923 38.9814 93.0985 40.2025 91.5343 41.0532C89.9976 41.904 88.2001 42.3293 86.1419 42.3293ZM86.1008 38.3365C87.7747 38.3365 89.0508 37.7876 89.929 36.6899C90.8071 35.5922 91.2462 33.9732 91.2462 31.8327C91.2462 29.7196 90.8071 28.1142 89.929 27.0166C89.0508 25.8914 87.7885 25.3289 86.1419 25.3289C84.4954 25.3289 83.2193 25.8914 82.3137 27.0166C81.4356 28.1142 80.9965 29.7196 80.9965 31.8327C80.9965 33.9732 81.4356 35.5922 82.3137 36.6899C83.1919 37.7876 84.4542 38.3365 86.1008 38.3365ZM102.463 36.0725C103.396 36.0725 104.151 36.4155 104.727 37.1016C105.303 37.7876 105.592 38.7893 105.592 40.1065C105.592 42.7135 104.686 44.9638 102.875 46.8573C102.518 47.214 102.134 47.3924 101.722 47.3924C101.311 47.3924 100.954 47.2552 100.652 46.9808C100.35 46.7063 100.199 46.377 100.199 45.9928C100.199 45.6635 100.336 45.3479 100.611 45.0461C101.434 44.1679 101.969 43.18 102.216 42.0823C101.42 42 100.762 41.6981 100.24 41.1767C99.7464 40.6279 99.4994 39.9556 99.4994 39.1597C99.4994 38.2816 99.7738 37.5544 100.323 36.9781C100.899 36.3743 101.612 36.0725 102.463 36.0725Z" fill="#C93155"/>
<path d="M77.9417 25.1182V32.9919C75.767 32.9919 74 31.225 74 29.0502C74 26.8851 75.767 25.1182 77.9417 25.1182Z" fill="#C93155"/>
<path d="M98 29.0599C98 31.2347 96.2427 33.0017 94.0582 33.0017V25.1182C96.2427 25.1182 98 26.8852 98 29.0599Z" fill="#C93155"/>
</svg>
